<mxfile host="app.diagrams.net" agent="Mozilla/5.0 (X11; Ubuntu; Linux x86_64; rv:136.0) Gecko/20100101 Firefox/136.0" version="26.1.1">
  <diagram name="Page-1" id="fG1Dt5wzgLy2BK9qvU7i">
    <mxGraphModel dx="989" dy="595" grid="1" gridSize="10" guides="1" tooltips="1" connect="1" arrows="1" fold="1" page="1" pageScale="1" pageWidth="850" pageHeight="1100" math="0" shadow="0">
      <root>
        <mxCell id="0" />
        <mxCell id="1" parent="0" />
        <mxCell id="j9PA9f9_Thtx9o9hWDL8-1" value="Nordic&lt;br&gt;Reserved&lt;br&gt;76 kB" style="rounded=0;whiteSpace=wrap;html=1;imageVerticalAlign=top;verticalAlign=top;fillColor=#dae8fc;strokeColor=#6c8ebf;" parent="1" vertex="1">
          <mxGeometry x="330" y="300" width="140" height="130" as="geometry" />
        </mxCell>
        <mxCell id="j9PA9f9_Thtx9o9hWDL8-2" value="SUIT storage&lt;br&gt;20 kB" style="rounded=0;whiteSpace=wrap;html=1;fillColor=#dae8fc;gradientDirection=east;strokeColor=#6c8ebf;" parent="1" vertex="1">
          <mxGeometry x="340" y="360" width="120" height="60" as="geometry" />
        </mxCell>
        <mxCell id="j9PA9f9_Thtx9o9hWDL8-3" value="Application&lt;br&gt;NV storage&lt;br&gt;32 kB" style="rounded=0;whiteSpace=wrap;html=1;fillColor=#fff2cc;strokeColor=#d6b656;" parent="1" vertex="1">
          <mxGeometry x="330" y="430" width="140" height="60" as="geometry" />
        </mxCell>
        <mxCell id="j9PA9f9_Thtx9o9hWDL8-4" value="DFU &lt;br&gt;partition&lt;br&gt;20 kB" style="rounded=0;whiteSpace=wrap;html=1;fillColor=#fff2cc;strokeColor=#d6b656;" parent="1" vertex="1">
          <mxGeometry x="330" y="490" width="140" height="60" as="geometry" />
        </mxCell>
        <mxCell id="j9PA9f9_Thtx9o9hWDL8-5" value="Nordic&lt;br&gt;Reserved&lt;br&gt;336 kB" style="rounded=0;whiteSpace=wrap;html=1;fillColor=#dae8fc;strokeColor=#6c8ebf;" parent="1" vertex="1">
          <mxGeometry x="330" y="790" width="140" height="60" as="geometry" />
        </mxCell>
        <mxCell id="j9PA9f9_Thtx9o9hWDL8-6" value="DFU cache 1&lt;br&gt;592 kB" style="rounded=0;whiteSpace=wrap;html=1;fillColor=#fff2cc;strokeColor=#d6b656;gradientColor=#D5E8D4;gradientDirection=east;" parent="1" vertex="1">
          <mxGeometry x="330" y="550" width="140" height="60" as="geometry" />
        </mxCell>
        <mxCell id="j9PA9f9_Thtx9o9hWDL8-7" value="Application A&lt;br&gt;592 kB" style="rounded=0;whiteSpace=wrap;html=1;fillColor=#d5e8d4;strokeColor=#82b366;" parent="1" vertex="1">
          <mxGeometry x="330" y="610" width="140" height="60" as="geometry" />
        </mxCell>
        <mxCell id="j9PA9f9_Thtx9o9hWDL8-8" value="Radio B&lt;br&gt;200 kB" style="rounded=0;whiteSpace=wrap;html=1;" parent="1" vertex="1">
          <mxGeometry x="330" y="670" width="140" height="60" as="geometry" />
        </mxCell>
        <mxCell id="j9PA9f9_Thtx9o9hWDL8-9" value="Radio A&lt;br&gt;200 kB" style="rounded=0;whiteSpace=wrap;html=1;fillColor=#e1d5e7;strokeColor=#9673a6;" parent="1" vertex="1">
          <mxGeometry x="330" y="730" width="140" height="60" as="geometry" />
        </mxCell>
        <mxCell id="j9PA9f9_Thtx9o9hWDL8-10" value="0x0E00 0000" style="text;html=1;align=center;verticalAlign=middle;whiteSpace=wrap;rounded=0;" parent="1" vertex="1">
          <mxGeometry x="250" y="840" width="80" height="10" as="geometry" />
        </mxCell>
        <mxCell id="j9PA9f9_Thtx9o9hWDL8-11" value="0x0E20 0000" style="text;html=1;align=center;verticalAlign=middle;whiteSpace=wrap;rounded=0;" parent="1" vertex="1">
          <mxGeometry x="250" y="290" width="80" height="10" as="geometry" />
        </mxCell>
        <mxCell id="j9PA9f9_Thtx9o9hWDL8-12" value="0x0E1E D000" style="text;html=1;align=center;verticalAlign=middle;whiteSpace=wrap;rounded=0;" parent="1" vertex="1">
          <mxGeometry x="250" y="420" width="80" height="10" as="geometry" />
        </mxCell>
        <mxCell id="j9PA9f9_Thtx9o9hWDL8-13" value="0x0E00 5400" style="text;html=1;align=center;verticalAlign=middle;whiteSpace=wrap;rounded=0;" parent="1" vertex="1">
          <mxGeometry x="250" y="780" width="80" height="10" as="geometry" />
        </mxCell>
        <mxCell id="j9PA9f9_Thtx9o9hWDL8-14" value="0x0E1E 0000" style="text;html=1;align=center;verticalAlign=middle;whiteSpace=wrap;rounded=0;" parent="1" vertex="1">
          <mxGeometry x="470" y="540" width="80" height="10" as="geometry" />
        </mxCell>
        <mxCell id="j9PA9f9_Thtx9o9hWDL8-15" value="0x0E14 C000" style="text;html=1;align=center;verticalAlign=middle;whiteSpace=wrap;rounded=0;" parent="1" vertex="1">
          <mxGeometry x="470" y="600" width="80" height="10" as="geometry" />
        </mxCell>
        <mxCell id="j9PA9f9_Thtx9o9hWDL8-16" value="0x0E0B 8000" style="text;html=1;align=center;verticalAlign=middle;whiteSpace=wrap;rounded=0;" parent="1" vertex="1">
          <mxGeometry x="470" y="660" width="80" height="10" as="geometry" />
        </mxCell>
        <mxCell id="j9PA9f9_Thtx9o9hWDL8-17" value="0x0E08 6000" style="text;html=1;align=center;verticalAlign=middle;whiteSpace=wrap;rounded=0;" parent="1" vertex="1">
          <mxGeometry x="470" y="720" width="80" height="10" as="geometry" />
        </mxCell>
        <mxCell id="j9PA9f9_Thtx9o9hWDL8-20" value="0x0E1E 5000" style="text;html=1;align=center;verticalAlign=middle;whiteSpace=wrap;rounded=0;" parent="1" vertex="1">
          <mxGeometry x="470" y="480" width="80" height="10" as="geometry" />
        </mxCell>
        <mxCell id="j9PA9f9_Thtx9o9hWDL8-21" value="" style="endArrow=none;html=1;rounded=0;" parent="1" edge="1">
          <mxGeometry width="50" height="50" relative="1" as="geometry">
            <mxPoint x="280" y="300" as="sourcePoint" />
            <mxPoint x="330" y="300" as="targetPoint" />
          </mxGeometry>
        </mxCell>
        <mxCell id="j9PA9f9_Thtx9o9hWDL8-22" value="" style="endArrow=none;html=1;rounded=0;" parent="1" edge="1">
          <mxGeometry width="50" height="50" relative="1" as="geometry">
            <mxPoint x="280" y="850" as="sourcePoint" />
            <mxPoint x="330" y="850" as="targetPoint" />
          </mxGeometry>
        </mxCell>
        <mxCell id="j9PA9f9_Thtx9o9hWDL8-23" value="" style="endArrow=none;html=1;rounded=0;" parent="1" edge="1">
          <mxGeometry width="50" height="50" relative="1" as="geometry">
            <mxPoint x="280" y="639.71" as="sourcePoint" />
            <mxPoint x="330" y="639.71" as="targetPoint" />
          </mxGeometry>
        </mxCell>
        <mxCell id="j9PA9f9_Thtx9o9hWDL8-24" value="0x0E10 0000" style="text;html=1;align=center;verticalAlign=middle;whiteSpace=wrap;rounded=0;" parent="1" vertex="1">
          <mxGeometry x="250" y="630" width="80" height="10" as="geometry" />
        </mxCell>
        <mxCell id="j9PA9f9_Thtx9o9hWDL8-26" value="" style="endArrow=none;html=1;rounded=0;" parent="1" edge="1">
          <mxGeometry width="50" height="50" relative="1" as="geometry">
            <mxPoint x="300" y="430" as="sourcePoint" />
            <mxPoint x="330" y="430" as="targetPoint" />
          </mxGeometry>
        </mxCell>
        <mxCell id="j9PA9f9_Thtx9o9hWDL8-27" value="" style="endArrow=none;html=1;rounded=0;entryX=0;entryY=0;entryDx=0;entryDy=0;" parent="1" target="j9PA9f9_Thtx9o9hWDL8-5" edge="1">
          <mxGeometry width="50" height="50" relative="1" as="geometry">
            <mxPoint x="290" y="790" as="sourcePoint" />
            <mxPoint x="340" y="790" as="targetPoint" />
          </mxGeometry>
        </mxCell>
        <mxCell id="j9PA9f9_Thtx9o9hWDL8-28" value="" style="endArrow=none;html=1;rounded=0;" parent="1" edge="1">
          <mxGeometry width="50" height="50" relative="1" as="geometry">
            <mxPoint x="470" y="490" as="sourcePoint" />
            <mxPoint x="520" y="490" as="targetPoint" />
          </mxGeometry>
        </mxCell>
        <mxCell id="j9PA9f9_Thtx9o9hWDL8-29" value="" style="endArrow=none;html=1;rounded=0;" parent="1" edge="1">
          <mxGeometry width="50" height="50" relative="1" as="geometry">
            <mxPoint x="470" y="550" as="sourcePoint" />
            <mxPoint x="520" y="550" as="targetPoint" />
          </mxGeometry>
        </mxCell>
        <mxCell id="j9PA9f9_Thtx9o9hWDL8-30" value="" style="endArrow=none;html=1;rounded=0;" parent="1" edge="1">
          <mxGeometry width="50" height="50" relative="1" as="geometry">
            <mxPoint x="470" y="610" as="sourcePoint" />
            <mxPoint x="520" y="610" as="targetPoint" />
          </mxGeometry>
        </mxCell>
        <mxCell id="j9PA9f9_Thtx9o9hWDL8-31" value="" style="endArrow=none;html=1;rounded=0;" parent="1" edge="1">
          <mxGeometry width="50" height="50" relative="1" as="geometry">
            <mxPoint x="470" y="670" as="sourcePoint" />
            <mxPoint x="520" y="670" as="targetPoint" />
          </mxGeometry>
        </mxCell>
        <mxCell id="j9PA9f9_Thtx9o9hWDL8-32" value="" style="endArrow=none;html=1;rounded=0;" parent="1" edge="1">
          <mxGeometry width="50" height="50" relative="1" as="geometry">
            <mxPoint x="470" y="730" as="sourcePoint" />
            <mxPoint x="520" y="730" as="targetPoint" />
          </mxGeometry>
        </mxCell>
        <mxCell id="j9PA9f9_Thtx9o9hWDL8-33" value="Application&lt;br&gt;RW-S" style="rounded=0;whiteSpace=wrap;html=1;fillColor=#fff2cc;strokeColor=#d6b656;" parent="1" vertex="1">
          <mxGeometry x="600" y="660" width="80" height="40" as="geometry" />
        </mxCell>
        <mxCell id="j9PA9f9_Thtx9o9hWDL8-34" value="Application&lt;br&gt;R-XS" style="rounded=0;whiteSpace=wrap;html=1;fillColor=#d5e8d4;strokeColor=#82b366;" parent="1" vertex="1">
          <mxGeometry x="600" y="710" width="80" height="40" as="geometry" />
        </mxCell>
        <mxCell id="j9PA9f9_Thtx9o9hWDL8-35" value="Radio&lt;br&gt;R-XS" style="rounded=0;whiteSpace=wrap;html=1;fillColor=#e1d5e7;strokeColor=#9673a6;" parent="1" vertex="1">
          <mxGeometry x="600" y="760" width="80" height="40" as="geometry" />
        </mxCell>
        <mxCell id="j9PA9f9_Thtx9o9hWDL8-36" value="Reserved&lt;br&gt;----" style="rounded=0;whiteSpace=wrap;html=1;fillColor=#dae8fc;strokeColor=#6c8ebf;" parent="1" vertex="1">
          <mxGeometry x="600" y="810" width="80" height="40" as="geometry" />
        </mxCell>
        <mxCell id="j9PA9f9_Thtx9o9hWDL8-37" value="Application&lt;br&gt;IPUC&lt;br&gt;RW-S" style="rounded=0;whiteSpace=wrap;html=1;fillColor=#fff2cc;strokeColor=#d6b656;gradientColor=#D5E8D4;gradientDirection=east;" parent="1" vertex="1">
          <mxGeometry x="600" y="610" width="80" height="40" as="geometry" />
        </mxCell>
      </root>
    </mxGraphModel>
  </diagram>
</mxfile>
